<?xml version="1.0" encoding="UTF-8" standalone="no"?>
<svg width="100px" height="100px" viewBox="0 0 100 100" version="1.1" xmlns="http://www.w3.org/2000/svg" xmlns:xlink="http://www.w3.org/1999/xlink" xmlns:sketch="http://www.bohemiancoding.com/sketch/ns">
    <!-- Generator: Sketch 3.0.4 (8054) - http://www.bohemiancoding.com/sketch -->
    <title>buttons 2</title>
    <desc>Created with Sketch.</desc>
    <defs></defs>
    <g id="Page-1" stroke="none" stroke-width="1" fill="none" fill-rule="evenodd" sketch:type="MSPage">
        <path d="M50,100 C77.6142375,100 100,77.6142375 100,50 C100,22.3857625 77.6142375,0 50,0 C22.3857625,0 0,22.3857625 0,50 C0,77.6142375 22.3857625,100 50,100 Z M59.38,47.48 C61.5400108,48.2000036 63.2949933,49.4059915 64.645,51.098 C65.9950068,52.7900085 66.67,54.8239881 66.67,57.2 C66.67,59.1440097 66.3010037,60.7999932 65.563,62.168 C64.8249963,63.5360068 63.8440061,64.6519957 62.62,65.516 C61.3959939,66.3800043 59.983008,67.009998 58.381,67.406 C56.778992,67.802002 55.1140086,68 53.386,68 L38.59,68 L38.59,29.012 L50.686,29.012 C52.1980076,29.012 53.7189924,29.1829983 55.249,29.525 C56.7790077,29.8670017 58.146994,30.4429959 59.353,31.253 C60.559006,32.063004 61.5399962,33.1429932 62.296,34.493 C63.0520038,35.8430067 63.43,37.5079901 63.43,39.488 C63.43,40.1000031 63.3580007,40.7749963 63.214,41.513 C63.0699993,42.2510037 62.8360016,42.9889963 62.512,43.727 C62.1879984,44.4650037 61.7740025,45.1579968 61.27,45.806 C60.7659975,46.4540032 60.1360038,47.0119977 59.38,47.48 Z M43.72,33.656 L43.72,45.482 L49.39,45.482 C50.6860065,45.482 51.8649947,45.4100007 52.927,45.266 C53.9890053,45.1219993 54.8979962,44.8340022 55.654,44.402 C56.4100038,43.9699978 56.9949979,43.358004 57.409,42.566 C57.8230021,41.773996 58.03,40.7480063 58.03,39.488 C58.03,37.6519908 57.4000063,36.2210051 56.14,35.195 C54.8799937,34.1689949 53.0620119,33.656 50.686,33.656 L43.72,33.656 Z M43.72,50.18 L43.72,63.356 L51.226,63.356 C52.4500061,63.356 53.664994,63.2750008 54.871,63.113 C56.077006,62.9509992 57.1569952,62.6450022 58.111,62.195 C59.0650048,61.7449977 59.8299971,61.115004 60.406,60.305 C60.9820029,59.4949959 61.27,58.4600063 61.27,57.2 C61.27,55.5799919 60.9460032,54.3020047 60.298,53.366 C59.6499968,52.4299953 58.7770055,51.7280023 57.679,51.26 C56.5809945,50.7919977 55.3120072,50.4950006 53.872,50.369 C52.4319928,50.2429994 50.9380077,50.18 49.39,50.18 L43.72,50.18 Z" id="Oval-1" fill="#363636" sketch:type="MSShapeGroup"></path>
    </g>
</svg>