<?xml version="1.0" encoding="UTF-8" standalone="no"?>
<svg width="100px" height="100px" viewBox="0 0 100 100" version="1.1" xmlns="http://www.w3.org/2000/svg" xmlns:xlink="http://www.w3.org/1999/xlink" xmlns:sketch="http://www.bohemiancoding.com/sketch/ns">
    <!-- Generator: Sketch 3.0.4 (8054) - http://www.bohemiancoding.com/sketch -->
    <title>buttons 2</title>
    <desc>Created with Sketch.</desc>
    <defs></defs>
    <g id="Page-1" stroke="none" stroke-width="1" fill="none" fill-rule="evenodd" sketch:type="MSPage">
        <path d="M50,100 C77.6142375,100 100,77.6142375 100,50 C100,22.3857625 77.6142375,0 50,0 C22.3857625,0 0,22.3857625 0,50 C0,77.6142375 22.3857625,100 50,100 Z M52.6679688,45.640625 C54.8828236,45.640625 56.6054626,45.3330109 57.8359375,44.7177734 C59.7695409,43.7509717 60.7363281,42.0107548 60.7363281,39.4970703 C60.7363281,36.9658077 59.7080181,35.2607466 57.6513672,34.3818359 C56.4912051,33.889646 54.7685661,33.6435547 52.4833984,33.6435547 L43.1230469,33.6435547 L43.1230469,45.640625 L52.6679688,45.640625 Z M54.4345703,63.5175781 C57.6513833,63.5175781 59.9453056,62.5859468 61.3164062,60.7226562 C62.1777387,59.544916 62.6083984,58.1211021 62.6083984,56.4511719 C62.6083984,53.6386578 61.3515751,51.7226613 58.8378906,50.703125 C57.5019464,50.1582004 55.7353625,49.8857422 53.5380859,49.8857422 L43.1230469,49.8857422 L43.1230469,63.5175781 L54.4345703,63.5175781 Z M37.9814453,29.2666016 L54.6191406,29.2666016 C59.1543196,29.2666016 62.3798732,30.6201037 64.2958984,33.3271484 C65.4209041,34.9267658 65.9833984,36.7724505 65.9833984,38.8642578 C65.9833984,41.3076294 65.2890694,43.3115156 63.9003906,44.8759766 C63.1796839,45.7021526 62.1425849,46.4580044 60.7890625,47.1435547 C62.7754006,47.8994178 64.2607373,48.7519484 65.2451172,49.7011719 C66.9853603,51.3886803 67.8554688,53.7177586 67.8554688,56.6884766 C67.8554688,59.1845828 67.07325,61.4433493 65.5087891,63.4648438 C63.1708867,66.4882964 59.4531505,68 54.3554688,68 L37.9814453,68 L37.9814453,29.2666016 Z" id="Oval-1" fill="#363636" sketch:type="MSShapeGroup"></path>
    </g>
</svg>