<?xml version="1.0" encoding="UTF-8" standalone="no"?>
<svg width="399px" height="77px" viewBox="0 0 399 77" version="1.1" xmlns="http://www.w3.org/2000/svg" xmlns:xlink="http://www.w3.org/1999/xlink" xmlns:sketch="http://www.bohemiancoding.com/sketch/ns">
    <!-- Generator: Sketch 3.0.4 (8054) - http://www.bohemiancoding.com/sketch -->
    <title>buttons 2</title>
    <desc>Created with Sketch.</desc>
    <defs></defs>
    <g id="Page-1" stroke="none" stroke-width="1" fill="none" fill-rule="evenodd" sketch:type="MSPage">
        <g id="Plus" sketch:type="MSLayerGroup" transform="translate(171.000000, 0.000000)" fill="#363636">
            <rect id="Rectangle-3" sketch:type="MSShapeGroup" x="24.5799133" y="0" width="8" height="56" rx="6"></rect>
            <rect id="Rectangle-3" sketch:type="MSShapeGroup" transform="translate(28.150781, 28.000000) rotate(-90.000000) translate(-28.150781, -28.000000) " x="24.1156165" y="0" width="8" height="56" rx="6"></rect>
        </g>
        <rect id="Rectangle-1" fill="#363636" sketch:type="MSShapeGroup" x="4" y="53" width="158" height="24" rx="15"></rect>
        <rect id="Rectangle-1" fill="#363636" sketch:type="MSShapeGroup" x="241" y="53" width="158" height="24" rx="15"></rect>
        <path d="M4.90453625,28.890625 C5.01391179,30.8437598 5.47484468,32.4296814 6.28734875,33.6484375 C7.83423148,35.9296989 10.5607667,37.0703125 14.4670362,37.0703125 C16.217045,37.0703125 17.8107791,36.820315 19.2482862,36.3203125 C22.0295502,35.3515577 23.4201612,33.6172 23.4201612,31.1171875 C23.4201612,29.2421781 22.8342296,27.906254 21.6623487,27.109375 C20.4748428,26.3281211 18.6154864,25.6484404 16.0842237,25.0703125 L11.4201612,24.015625 C8.37327101,23.3281216 6.21704258,22.5703166 4.95141125,21.7421875 C2.76390031,20.3046803 1.67016125,18.1562643 1.67016125,15.296875 C1.67016125,12.2031095 2.74046304,9.66407242 4.88109875,7.6796875 C7.02173445,5.69530258 10.0529541,4.703125 13.9748487,4.703125 C17.5842418,4.703125 20.6506174,5.57421004 23.1740675,7.31640625 C25.6975176,9.05860246 26.9592237,11.8437309 26.9592237,15.671875 L22.5764112,15.671875 C22.3420351,13.8281158 21.8420401,12.4140674 21.0764112,11.4296875 C19.6545291,9.63280352 17.2404908,8.734375 13.8342237,8.734375 C11.08421,8.734375 9.10766726,9.31249422 7.90453625,10.46875 C6.70140523,11.6250058 6.09984875,12.9687423 6.09984875,14.5 C6.09984875,16.1875084 6.80296672,17.4218711 8.20922375,18.203125 C9.13110336,18.7031275 11.21702,19.3281212 14.4670362,20.078125 L19.2951612,21.1796875 C21.6232979,21.7109402 23.4201549,22.4374954 24.6857862,23.359375 C26.8732972,24.968758 27.9670362,27.3046722 27.9670362,30.3671875 C27.9670362,34.1797066 26.5803314,36.9062418 23.80688,38.546875 C21.0334286,40.1875082 17.8108046,41.0078125 14.1389112,41.0078125 C9.85763984,41.0078125 6.50611086,39.9140734 4.08422375,37.7265625 C1.66233664,35.5546766 0.474848513,32.6093936 0.521723747,28.890625 L4.90453625,28.890625 Z M31.2137012,5.5703125 L56.3152637,5.5703125 L56.3152637,9.7890625 L35.7605762,9.7890625 L35.7605762,20.2421875 L54.7683887,20.2421875 L54.7683887,24.2265625 L35.7605762,24.2265625 L35.7605762,35.8984375 L56.6668262,35.8984375 L56.6668262,40 L31.2137012,40 L31.2137012,5.5703125 Z M59.6791162,5.5703125 L64.3431787,5.5703125 L64.3431787,35.8984375 L81.7806787,35.8984375 L81.7806787,40 L59.6791162,40 L59.6791162,5.5703125 Z M83.7148438,5.5703125 L108.816406,5.5703125 L108.816406,9.7890625 L88.2617188,9.7890625 L88.2617188,20.2421875 L107.269531,20.2421875 L107.269531,24.2265625 L88.2617188,24.2265625 L88.2617188,35.8984375 L109.167969,35.8984375 L109.167969,40 L83.7148438,40 L83.7148438,5.5703125 Z M136.836509,8.078125 C139.242771,10.3750115 140.578695,12.9843604 140.844321,15.90625 L136.297446,15.90625 C135.781819,13.6874889 134.754485,11.929694 133.215415,10.6328125 C131.676345,9.33593102 129.51621,8.6875 126.734946,8.6875 C123.344304,8.6875 120.60605,9.87889434 118.520103,12.2617188 C116.434155,14.6445432 115.391196,18.2968504 115.391196,23.21875 C115.391196,27.2500202 116.332593,30.5195187 118.215415,33.0273438 C120.098237,35.5351688 122.906803,36.7890625 126.641196,36.7890625 C130.078713,36.7890625 132.695875,35.4687632 134.492759,32.828125 C135.445889,31.437493 136.156819,29.6093863 136.625571,27.34375 L141.172446,27.34375 C140.766194,30.9687681 139.422458,34.0078002 137.141196,36.4609375 C134.406808,39.4140773 130.719344,40.890625 126.078696,40.890625 C122.078676,40.890625 118.719335,39.6796996 116.000571,37.2578125 C112.422428,34.0546715 110.633384,29.1094084 110.633384,22.421875 C110.633384,17.3437246 111.97712,13.1797037 114.664634,9.9296875 C117.570898,6.39841984 121.578671,4.6328125 126.688071,4.6328125 C131.047468,4.6328125 134.430247,5.78123852 136.836509,8.078125 Z M168.794111,5.5703125 L168.794111,9.671875 L157.192549,9.671875 L157.192549,40 L152.458174,40 L152.458174,9.671875 L140.856611,9.671875 L140.856611,5.5703125 L168.794111,5.5703125 Z" id="SELECT" fill="#363636" sketch:type="MSShapeGroup"></path>
        <path d="M250.358807,28.890625 C250.468183,30.8437598 250.929116,32.4296814 251.74162,33.6484375 C253.288503,35.9296989 256.015038,37.0703125 259.921307,37.0703125 C261.671316,37.0703125 263.26505,36.820315 264.702557,36.3203125 C267.483821,35.3515577 268.874432,33.6172 268.874432,31.1171875 C268.874432,29.2421781 268.288501,27.906254 267.11662,27.109375 C265.929114,26.3281211 264.069757,25.6484404 261.538495,25.0703125 L256.874432,24.015625 C253.827542,23.3281216 251.671314,22.5703166 250.405682,21.7421875 C248.218171,20.3046803 247.124432,18.1562643 247.124432,15.296875 C247.124432,12.2031095 248.194734,9.66407242 250.33537,7.6796875 C252.476006,5.69530258 255.507225,4.703125 259.42912,4.703125 C263.038513,4.703125 266.104888,5.57421004 268.628339,7.31640625 C271.151789,9.05860246 272.413495,11.8437309 272.413495,15.671875 L268.030682,15.671875 C267.796306,13.8281158 267.296311,12.4140674 266.530682,11.4296875 C265.1088,9.63280352 262.694762,8.734375 259.288495,8.734375 C256.538481,8.734375 254.561938,9.31249422 253.358807,10.46875 C252.155676,11.6250058 251.55412,12.9687423 251.55412,14.5 C251.55412,16.1875084 252.257238,17.4218711 253.663495,18.203125 C254.585374,18.7031275 256.671291,19.3281212 259.921307,20.078125 L264.749432,21.1796875 C267.077569,21.7109402 268.874426,22.4374954 270.140057,23.359375 C272.327568,24.968758 273.421307,27.3046722 273.421307,30.3671875 C273.421307,34.1797066 272.034602,36.9062418 269.261151,38.546875 C266.4877,40.1875082 263.265076,41.0078125 259.593182,41.0078125 C255.311911,41.0078125 251.960382,39.9140734 249.538495,37.7265625 C247.116608,35.5546766 245.92912,32.6093936 245.975995,28.890625 L250.358807,28.890625 Z M304.329347,5.5703125 L304.329347,9.671875 L292.727784,9.671875 L292.727784,40 L287.993409,40 L287.993409,9.671875 L276.391847,9.671875 L276.391847,5.5703125 L304.329347,5.5703125 Z M315.010824,5.5703125 L320.284261,5.5703125 L332.776449,40 L327.667074,40 L324.174886,29.6875 L310.557699,29.6875 L306.831136,40 L302.049886,40 L315.010824,5.5703125 Z M322.674886,25.890625 L317.448324,10.6796875 L311.893636,25.890625 L322.674886,25.890625 Z M337.528239,5.5703125 L353.465739,5.5703125 C356.090752,5.5703125 358.254793,5.95312117 359.957926,6.71875 C363.192317,8.18750734 364.809489,10.8984177 364.809489,14.8515625 C364.809489,16.9140728 364.383712,18.6015559 363.532145,19.9140625 C362.680578,21.2265691 361.489184,22.281246 359.957926,23.078125 C361.301683,23.6250027 362.313391,24.3437455 362.993082,25.234375 C363.672773,26.1250045 364.051676,27.5703025 364.129801,29.5703125 L364.293864,34.1875 C364.340739,35.5000066 364.450113,36.4765593 364.621989,37.1171875 C364.90324,38.210943 365.403235,38.9140609 366.121989,39.2265625 L366.121989,40 L360.403239,40 C360.246988,39.7031235 360.121989,39.3203148 360.028239,38.8515625 C359.934488,38.3828102 359.856364,37.4765692 359.793864,36.1328125 L359.512614,30.390625 C359.403238,28.1406137 358.567309,26.6328163 357.004801,25.8671875 C356.114172,25.4453104 354.715748,25.234375 352.809489,25.234375 L342.192301,25.234375 L342.192301,40 L337.528239,40 L337.528239,5.5703125 Z M352.973551,21.34375 C355.161062,21.34375 356.891513,20.9062544 358.164957,20.03125 C359.438401,19.1562456 360.075114,17.5781364 360.075114,15.296875 C360.075114,12.8437377 359.184497,11.1718795 357.403239,10.28125 C356.450109,9.81249766 355.176684,9.578125 353.582926,9.578125 L342.192301,9.578125 L342.192301,21.34375 L352.973551,21.34375 Z M395.787841,5.5703125 L395.787841,9.671875 L384.186278,9.671875 L384.186278,40 L379.451903,40 L379.451903,9.671875 L367.850341,9.671875 L367.850341,5.5703125 L395.787841,5.5703125 Z" id="START" fill="#363636" sketch:type="MSShapeGroup"></path>
    </g>
</svg>